<?xml version="1.0" encoding="utf-8"?>
<!-- Generator: Adobe Illustrator 24.0.2, SVG Export Plug-In . SVG Version: 6.00 Build 0)  -->
<svg version="1.1" id="Layer_1" xmlns="http://www.w3.org/2000/svg" xmlns:xlink="http://www.w3.org/1999/xlink" x="0px" y="0px"
	 viewBox="0 0 1920 560" style="enable-background:new 0 0 1920 560;" xml:space="preserve">
<style type="text/css">
	.st0{fill-rule:evenodd;clip-rule:evenodd;fill:#F26539;}
	.st1{fill-rule:evenodd;clip-rule:evenodd;}
	.st2{fill-rule:evenodd;clip-rule:evenodd;fill:#6D6E71;}
	.st3{fill-rule:evenodd;clip-rule:evenodd;fill:#FFFFFF;}
</style>
<g>
	<g>
		<path class="st1" d="M593.5,173.5v43.1h-25.4v-75.4c0-7.2,0.7-13.3,2.1-18.3c1.4-5,3.8-9.1,7.1-12.2c3.4-3.1,7.9-5.3,13.5-6.7
			c5.6-1.4,12.6-2.1,21-2.1h78.4v22h-77.7c-7.1,0-12,1.5-14.8,4.4c-2.8,2.9-4.2,7.7-4.2,14.5v9.1h96.7v21.7H593.5z"/>
		<rect x="704.2" y="101.9" class="st1" width="25.6" height="114.7"/>
		<path class="st1" d="M842.3,216.6l-67.1-41.7v41.7h-25.4V101.9h89.8c8.1,0,15,0.5,20.7,1.5c5.7,1,10.4,2.8,14,5.4
			c3.6,2.6,6.3,6.1,8,10.6c1.7,4.5,2.5,10.1,2.5,17v7.9c0,6.6-0.9,12.1-2.7,16.4c-1.8,4.3-4.6,7.7-8.3,10.3
			c-3.8,2.5-8.5,4.3-14.2,5.3c-5.7,1-12.5,1.5-20.4,1.5h-20.2l67.3,38.9H842.3L842.3,216.6z M859.3,137.7c0-3-0.3-5.5-1-7.4
			c-0.7-1.9-1.8-3.4-3.4-4.4c-1.6-1-3.8-1.7-6.6-2c-2.8-0.3-6.3-0.5-10.4-0.5h-62.7v35h62.7c4.1,0,7.6-0.2,10.3-0.5
			c2.7-0.3,4.9-1,6.6-2c1.6-1,2.8-2.5,3.4-4.4c0.7-1.9,1-4.4,1-7.6V137.7z"/>
		<path class="st1" d="M899.3,216.6v-21.7h87.1c4.6,0,7.9-0.6,9.9-1.9c2-1.3,3-3.9,3-7.8v-6.2c0-3.6-1-6.1-3-7.7
			c-2-1.5-5.3-2.3-9.8-2.3H932c-6.4,0-11.7-0.6-15.9-1.8c-4.2-1.2-7.5-3-10-5.4c-2.5-2.4-4.2-5.4-5.1-9.1c-1-3.6-1.4-7.9-1.4-12.9
			v-5.7c0-5.8,0.6-10.8,1.9-15c1.2-4.1,3.1-7.5,5.7-10c2.6-2.5,5.9-4.4,10.1-5.6c4.1-1.2,9.1-1.8,14.8-1.8h69.3v21.7h-66.9
			c-3.9,0-6.8,0.8-8.7,2.3c-1.8,1.5-2.8,4.6-2.8,9.2v3.7c0,3.6,0.8,6.1,2.5,7.7c1.7,1.5,4.6,2.3,8.7,2.3h53.7
			c6.4,0,11.8,0.5,16.2,1.6c4.4,1.1,8,2.8,10.8,5.1c2.8,2.4,4.8,5.4,6.1,9.1c1.2,3.7,1.8,8.1,1.8,13.3v9.1c0,5.4-0.6,10-1.8,13.7
			c-1.2,3.8-3.3,6.8-6.1,9.2c-2.8,2.4-6.4,4.1-10.8,5.2c-4.4,1.1-9.8,1.7-16.2,1.7H899.3z"/>
		<polygon class="st1" points="1065.4,216.6 1065.4,123.9 1017.2,123.9 1017.2,101.9 1139.2,101.9 1139.2,123.9 1091.1,123.9 
			1091.1,216.6 		"/>
		<polygon class="st1" points="1381.9,216.6 1381.9,123.9 1333.8,123.9 1333.8,101.9 1455.8,101.9 1455.8,123.9 1407.7,123.9 
			1407.7,216.6 		"/>
		<path class="st1" d="M1561.1,190.2h-79.4l-16.3,26.4h-29.4l66.6-106c2-3.3,4.4-5.9,7.2-8.1c2.8-2.1,6.8-3.2,12.1-3.2
			c5.2,0,9.1,1.1,11.9,3.2c2.8,2.1,5.2,4.8,7.2,8.1l66.3,106h-29.6L1561.1,190.2L1561.1,190.2z M1493.6,170.5h55.5l-27.8-45.2
			L1493.6,170.5z"/>
		<polygon class="st1" points="1635.4,216.6 1635.4,123.9 1587.3,123.9 1587.3,101.9 1709.3,101.9 1709.3,123.9 1661.2,123.9 
			1661.2,216.6 		"/>
		<path class="st1" d="M1765.4,216.6c-8.4,0-15.4-0.7-21-2.1c-5.6-1.4-10.1-3.6-13.5-6.7c-3.4-3.1-5.7-7.1-7.1-12.1
			c-1.4-5-2.1-11.1-2.1-18.4v-36c0-7.2,0.7-13.3,2.1-18.3c1.4-5,3.8-9.1,7.1-12.2c3.4-3.1,7.9-5.3,13.5-6.7c5.6-1.4,12.6-2.1,21-2.1
			h78.9v21.7h-78.9c-3.7,0-6.7,0.3-9.1,0.9c-2.4,0.6-4.2,1.6-5.6,2.9c-1.4,1.3-2.4,3.1-2.9,5.4c-0.5,2.2-0.8,5-0.8,8.4v7.7h97.7
			v20.4h-97.7v8.1c0,3.5,0.3,6.3,0.8,8.6c0.5,2.2,1.4,4,2.8,5.4c1.3,1.3,3.2,2.3,5.6,2.8c2.4,0.5,5.5,0.8,9.2,0.8h80.1v21.7H1765.4z
			"/>
		<path class="st1" d="M1215.5,216.6v-21.7h87.1c4.6,0,7.9-0.6,9.9-1.9c2-1.3,3-3.9,3-7.8v-6.2c0-3.6-1-6.1-3-7.7
			c-2-1.5-5.3-2.3-9.8-2.3h-54.7c-6.4,0-11.7-0.6-15.9-1.8c-4.2-1.2-7.5-3-10-5.4c-2.5-2.4-4.2-5.4-5.1-9.1c-1-3.6-1.4-7.9-1.4-12.9
			v-5.7c0-5.8,0.6-10.8,1.9-15c1.2-4.1,3.1-7.5,5.7-10c2.6-2.5,5.9-4.4,10.1-5.6c4.1-1.2,9.1-1.8,14.8-1.8h69.3v21.7h-66.9
			c-3.9,0-6.8,0.8-8.7,2.3c-1.8,1.5-2.8,4.6-2.8,9.2v3.7c0,3.6,0.8,6.1,2.5,7.7c1.7,1.5,4.6,2.3,8.7,2.3h53.7
			c6.4,0,11.8,0.5,16.2,1.6c4.4,1.1,8,2.8,10.8,5.1c2.8,2.4,4.8,5.4,6.1,9.1c1.2,3.7,1.8,8.1,1.8,13.3v9.1c0,5.4-0.6,10-1.8,13.7
			c-1.2,3.8-3.3,6.8-6.1,9.2c-2.8,2.4-6.4,4.1-10.8,5.2c-4.4,1.1-9.8,1.7-16.2,1.7H1215.5z"/>
	</g>
	<g>
		<path class="st2" d="M916.3,404.2c1,0,1.7,0.3,2.2,0.7c0.4,0.5,0.7,1.2,0.7,2.2c0,1.8-0.1,3.4-0.3,5c-0.2,1.5-0.5,2.9-1,4.1
			c-0.7,1.5-1.3,3-1.9,4.4c-0.6,1.5-1.2,2.9-1.8,4.5c-0.7,0.6-1.1,1.1-1.4,1.4c-0.1,0.7-0.2,1.5-0.3,2.2c0,0.3-0.2,0.6-0.5,0.8
			c-0.3,0.3-0.7,0.5-1.1,0.8c-0.1,0.4-0.3,0.8-0.5,1.2c-0.2,0.5-0.5,1-0.8,1.7c-1.2,1.8-2.7,3.9-4.6,6.4c-1.9,2.5-4.3,5.3-7.1,8.5
			c0,0.6-0.1,1.1-0.1,1.6l-3.7,6.3c-1.3,2.3-2.4,4.5-3.4,6.5c-1,2.1-1.7,4.1-2.2,6c-0.3,1-0.5,1.9-0.6,2.6c-0.1,0.7-0.2,1.2-0.2,1.4
			c0,0.4,0.3,0.9,0.8,1.6c0.5,0.7,0.8,1.2,0.8,1.3c0,0.8-1.3,1.8-3.9,3c-2.6,1.2-4.2,1.8-4.9,1.8c-0.7-0.1-1.4-0.2-2.1-0.3
			c-0.7-0.1-1.4-0.2-2-0.3c-0.9-0.2-1.6-0.4-2.2-0.7c-0.5-0.3-0.7-0.7-0.7-1.1c0-0.3,0.2-1,0.5-2c0.4-1.5,0.9-3,1.5-4.2
			c0.6-1.3,1.4-2.5,2.2-3.6l0.2-0.2c-0.1-0.1-0.2-0.3-0.3-0.5c-0.1-0.2-0.2-0.4-0.3-0.7c0.2-0.6,0.5-1.4,0.9-2.3
			c0.4-0.9,0.9-2,1.6-3.2c0.4-0.6,0.9-1.3,1.3-2.2c0.5-0.9,0.8-2,1.2-3.2c-1.6-1-2.9-2.1-3.9-3.2c-1-1.1-1.8-2.3-2.2-3.5
			c-0.4-0.6-0.8-1.3-1.4-2.3c-0.6-0.9-1.2-2-1.9-3.3l-5-13.4c-0.1-1.1-0.3-2.3-0.6-3.8c-0.2-1.5-0.6-3.1-1.2-5l0.6-1.2l-1.1-1.2
			c0-0.3,0-0.7-0.1-1.2c-0.1-0.5-0.2-1.1-0.3-1.9c-0.1-0.7-0.2-1.3-0.3-1.8c0-0.5,0-0.9,0-1.3c0-1.3,0.3-2.3,0.7-3
			c0.5-0.7,1.2-1.1,2.2-1.3c0.3,0,0.7,0,1,0c0.4,0,0.8,0,1.3,0c0.5,0,2.2-0.6,4.9-1.7c1.3,0,2.3,0.3,3,0.8c0.8,0.5,1.3,1.2,1.6,2.2
			c0.1,0.5,0.2,1.2,0.3,2.1c0,0.9,0.1,2,0.1,3.2c0,0.7-0.1,1.6-0.2,2.9c-0.2,1.3-0.2,2.2-0.2,2.8c0,0.2,0,0.4,0.1,0.7
			c0.1,0.3,0.2,0.6,0.2,1.1c0,1.1,0.2,2.6,0.5,4.2c0.3,1.7,0.7,3.6,1.1,5.7c0.3,1.3,0.7,2.8,1.2,4.7c0.5,1.9,1.2,4.1,1.9,6.6
			c0.4,0.3,0.7,0.8,1.1,1.2c0.4,0.5,0.8,1,1.1,1.6l0.5,0.2c0.3,0,0.9-0.8,2-2.4c1.1-1.6,2.5-4,4.3-7.2c0.3-0.4,0.6-1,0.9-1.7
			c0.3-0.7,0.8-1.5,1.3-2.4c0.2-0.2,0.5-0.5,0.8-0.8c0.3-0.3,0.6-0.8,0.9-1.3c0.2-0.6,0.5-1.3,1-2.3c0.5-0.9,1-2,1.7-3.3
			c0.6-0.8,1.3-1.8,2-3c0.7-1.2,1.6-2.6,2.4-4.2c0-0.2,0.9-1.3,2.5-3.4c1.6-2.1,4-5.1,7.1-9c0.3-0.4,0.7-0.8,1.1-1.1
			C915.6,404.3,916,404.2,916.3,404.2z"/>
		<path class="st2" d="M910.1,462.8c0.3-0.3,0.6-0.6,1-1c0.3-0.4,0.7-0.8,1.2-1.3l5.2-2.8c0.6-0.6,1.6-1.3,2.9-2.3
			c1.3-0.9,2.9-2,4.8-3.4c0.2-0.4,0.6-0.8,1.1-1.3c0.5-0.5,1.1-1,1.8-1.5c0.6-0.4,1.3-0.9,1.9-1.3c0.6-0.4,1.2-0.8,1.7-1.2
			c0.7-0.5,1.3-1.1,1.9-1.6c0.6-0.5,1.2-1,1.9-1.5c0.7-0.5,1.4-0.9,2.2-1.2c0.8-0.3,1.6-0.4,2.5-0.4c1,0,1.7,0.1,2.2,0.3
			c0.5,0.2,0.8,0.5,0.8,0.8c-0.4,0.8-0.9,1.6-1.4,2.4l0.4,0.5c2-0.6,3.5-1,4.6-1.3c1.1-0.3,1.8-0.4,2.2-0.4c3.2,0,5.7,0.8,7.3,2.3
			c1.6,1.6,2.4,3.9,2.4,7.1c0,0.6-0.1,1.3-0.3,2.1c-0.2,0.8-0.5,1.7-0.9,2.6c-0.4,1.1-0.9,1.9-1.4,2.6c-0.5,0.7-1,1.2-1.4,1.5
			c0.2,0.4,0.4,0.7,0.6,0.9c0.2,0.2,0.5,0.3,0.9,0.3c0.3,0,0.7-0.1,1.1-0.3c0.4-0.2,0.8-0.4,1.4-0.8c0.5,0.8,0.9,1.6,1.3,2.4
			c0.4,0.8,0.9,1.6,1.3,2.4c-0.8,0.6-1.6,1.1-2.3,1.7c-0.8,0.5-1.6,1-2.4,1.5c-1,0.7-2,1.2-2.9,1.5c-0.9,0.3-1.8,0.4-2.7,0.4
			c-1,0-1.9-0.2-2.6-0.6c-0.7-0.4-1.2-0.9-1.6-1.7c-1.1,1.2-2.5,2.2-4.1,3.2s-3.3,1.8-5.2,2.4c-1.1,0.4-2.2,0.8-3.1,1
			c-0.9,0.2-1.7,0.3-2.5,0.3c-0.2,0-0.7,0.1-1.3,0.2c-0.7,0.1-1.2,0.2-1.6,0.2c-2.5,0-4.9-0.8-6.9-2.5c-2.1-1.7-3.1-3.6-3.1-5.7
			c0-0.8,0.3-2,0.7-3.4c0.5-1.4,0.8-2.2,0.8-2.4c0-0.3-0.1-0.4-0.3-0.6c-0.2-0.1-0.5-0.2-0.8-0.2c-0.2,0-0.8,0.3-1.6,0.8
			c-0.8,0.5-2,1.3-3.6,2.3c-0.1,0.1-0.3,0.4-0.5,0.6c-0.2,0.3-0.5,0.6-0.9,1c-0.4-0.8-0.8-1.6-1.2-2.4
			C911.2,464.4,910.7,463.5,910.1,462.8L910.1,462.8z M942.4,453.2c-0.2,0-0.5,0.2-1,0.6c-0.4,0.3-0.8,0.7-1.2,1.2
			c-0.6,0.8-1.4,1.7-2.2,2.6c-0.5,0.4-1,0.8-1.6,1c-0.5,0.2-1.2,0.4-1.9,0.5c-0.5,0-0.9,0.4-1.4,1c-0.5,0.6-1,1.6-1.5,2.8
			c-0.5,1.1-0.8,2-1.1,2.8c-0.2,0.8-0.3,1.4-0.3,2c0,1,0.3,1.7,0.9,2.2c0.6,0.5,1.6,0.7,2.9,0.7c2.1,0,3.9-0.4,5.7-1.3
			c1.7-0.9,3.3-2.2,4.9-4c0.7-0.7,1.4-1.3,2-1.9c0.4-0.2,0.7-0.5,0.9-1c0.2-0.5,0.5-1.1,0.7-1.8l1.2-3c-0.4-1-0.8-1.9-1.1-2.5
			c-0.4-0.6-0.7-1-1.1-1.1c-0.2-0.1-0.7-0.2-1.5-0.3C944.9,453.5,943.8,453.4,942.4,453.2z"/>
		<path class="st2" d="M958.6,462.8c0.2-0.1,0.3-0.2,0.4-0.4c0.1-0.1,0.2-0.3,0.2-0.5c0.8-0.5,1.6-1.2,2.6-2c1-0.9,2.1-1.8,3.3-3
			c1-1.1,2-2.1,3-3.2c1.1-1.1,2.2-2.1,3.4-3.2c1-1.1,1.9-2.2,2.9-3.3c1-1.1,2-2.3,3.1-3.3c1.8-0.7,3.2-1.1,4.1-1.4
			c1-0.3,1.6-0.4,2-0.4c0.7,0,1.2,0.2,1.6,0.5c0.3,0.3,0.5,0.8,0.5,1.4c0,0.2-0.1,0.5-0.2,0.9c-0.1,0.4-0.3,0.8-0.5,1.3
			c-0.3,0.7-0.7,1.4-1.1,2.2c-0.4,1.2-0.8,2.5-1.3,3.7c-0.5,1.2-1,2.4-1.4,3.6c-0.5,1.5-0.8,2.9-1.1,4.1c-0.3,1.3-0.4,2.4-0.4,3.5
			c0,2,0.1,3.4,0.4,4.4c0.3,1,0.6,1.4,1.1,1.3c0.4-0.2,1-0.4,1.7-0.8c0.7-0.3,1.4-0.6,2.3-1c0.8-0.7,1.7-1.5,2.7-2.5
			c1-1,2.2-2.1,3.6-3.5c0.8-1,1.6-1.9,2.5-2.9c0.3-0.3,0.7-0.6,1.1-1c0.4-0.4,0.8-0.8,1.2-1.1c0.8-1.7,1.8-2.9,2.9-3.8
			c1.1-0.8,2.2-1.2,3.5-1.2c1.2,0,2.1,0.1,2.8,0.3c0.7,0.2,1.2,0.6,1.4,1c0.1,0.2,0.3,0.7,0.3,1.3c0.1,0.6,0.1,1.4,0.1,2.4
			c0,0.4,0.1,1,0.3,1.7c0.2,0.7,0.3,1.3,0.3,1.6c0,1.3,0.3,2.3,0.9,2.9c0.6,0.7,1.5,1,2.7,1c0.3,0,0.8-0.1,1.2-0.2
			c0.5-0.1,1-0.3,1.4-0.4l2.7,4.8c-2.7,1.3-4.9,2.2-6.6,2.9c-1.7,0.7-3,1-3.9,1c-2.2,0-4.1-0.4-5.5-1.4c-1.4-0.9-2.5-2.3-3.1-4.1
			c-0.1-0.4-0.3-0.8-0.6-1.3c-0.3-0.4-0.7-0.8-1.1-1.3c-0.4,0.4-0.8,0.8-1.4,1.3c-0.5,0.5-1.1,1-1.6,1.5c-1.2,1.1-2.4,2.3-3.6,3.4
			c-1.2,1.1-2.4,2.2-3.7,3.3c-1.6,1.4-3.1,2.5-4.7,3.1c-1.6,0.6-3.1,1-4.5,1c-2,0-3.7-0.5-4.9-1.5c-1.3-1-2.1-2.4-2.4-4.3
			c-0.4-1.8-0.7-3.2-0.8-4.3c-0.1-1-0.2-1.6-0.1-1.8c-0.1-1-0.2-1.8-0.4-2.3c-0.2-0.5-0.4-0.8-0.7-0.8l-0.4,0.2l-3.8,3.1
			c-0.1,0.3-0.4,0.6-0.7,0.9c-0.3,0.4-0.8,0.8-1.3,1.3c-0.2-0.5-0.5-1.2-1-2C959.9,464.9,959.3,463.9,958.6,462.8z"/>
		<path class="st2" d="M1014.4,462.8c0.7-0.7,1.4-1.5,2.2-2.3c3.3-2.1,6-4.1,8.1-6.1c2.1-2,3.6-3.8,4.5-5.4l-0.7-2.5
			c0.6-0.9,2-1.9,4.3-3.1c2.3-1.2,4.2-1.8,5.6-1.8c1.5,0,2.8,0.4,3.9,1.1c1,0.7,2.1,1.4,3,2.2c0.5,0.3,0.8,0.4,1.1,0.6
			c1.8,1,3.1,2.5,4,4.4c0.9,1.8,1.4,4.1,1.4,6.8c0,1.4-0.7,3.4-2.1,6c-1.4,2.6-2.1,4.6-2.1,5.9c0,0.2,0.1,0.3,0.3,0.4
			c0.1,0.1,0.4,0.2,0.6,0.2c0.6,0,1.3-0.2,2.1-0.6c0.8-0.4,1.6-1,2.6-1.7c2.4-1.8,3.8-2.8,4.3-3c0.5-0.2,1.1-0.5,1.8-1
			c0.4,0.7,0.8,1.5,1.3,2.3c0.5,0.8,1,1.7,1.4,2.6c-0.4,0.3-0.9,0.6-1.4,1c-0.5,0.4-1.1,0.8-1.9,1.3c-1.5,0.9-3.5,1.9-5.9,3.2
			c-2.4,1.2-5.3,2.7-8.7,4.3c-0.9,0.5-1.9,0.8-3.1,1.1c-1.9,0-3.3-0.2-4.2-0.7c-0.9-0.4-1.4-1.1-1.4-2.1c0-0.4,0.1-0.8,0.3-1.3
			c0.2-0.5,0.5-1.1,0.8-1.7c0.3-0.4,0.6-0.9,0.9-1.4c0.3-0.5,0.6-1,0.8-1.4c1-2.2,1.7-4.3,2.2-6.2c0.5-1.9,0.8-3.6,0.8-5.1
			c0-1.8-0.4-3.3-1.1-4.3c-0.7-1-1.9-1.5-3.3-1.7c-1,0.4-2.1,1-3.2,1.8c-1.1,0.8-2.3,1.7-3.5,2.9c-1.3,1.3-2.4,2.3-3.5,3.1
			c-1,0.8-1.9,1.3-2.5,1.6c-0.4,0.5-1.1,1.1-1.9,1.8c-0.9,0.7-2.1,1.4-3.5,2.2c-0.1,0.1-0.2,0.3-0.4,0.6c-0.2,0.3-0.5,0.6-0.9,1
			c-0.4-0.8-0.8-1.6-1.2-2.4C1015.5,464.4,1015,463.6,1014.4,462.8z"/>
		<path class="st2" d="M1107.5,448.2c-0.1-0.3-0.2-0.8-0.3-1.5c-0.1-0.6-0.1-1.4-0.1-2.3c0-0.5,0.3-1.3,1-2.3c0.7-1,1.7-2.3,3-3.7
			c1.1-1.3,2.2-2.4,3.2-3.3c1-0.9,1.9-1.5,2.7-2c0.9-1.1,2.1-2.4,3.3-3.8c1.3-1.4,2.9-2.9,4.8-4.6c2.5-2.1,4.4-3.8,5.9-5.1
			c1.5-1.3,2.5-2.4,3.1-3c0.4-0.3,1-0.7,1.6-1.3c0.7-0.5,1.4-1.2,2.2-1.9c0.8-0.6,1.4-1.1,2.1-1.4c0.6-0.3,1.2-0.5,1.9-0.5
			c0.8,0.1,1.6,0.3,2.3,0.5c1.9,0.4,3.4,1,4.4,1.8c1,0.8,1.5,1.9,1.5,3.2c0,1.3-0.1,2.5-0.3,3.7c-0.2,1.2-0.4,2.4-0.8,3.6
			c-0.1,0.4-0.2,1-0.3,1.8c-0.1,0.8-0.1,1.6-0.1,2.6c0,0.3,0,0.6,0,0.9c0,0.3-0.1,0.6-0.2,1c-0.1,0.4-0.2,0.7-0.3,1
			c0,0.3-0.1,0.5-0.1,0.7v1.7c0,0.4-0.1,1-0.2,1.6c-0.1,0.6-0.3,1.3-0.5,2c-0.2,1-0.4,1.8-0.5,2.4c-0.2,0.6-0.3,1-0.3,1.2
			c-0.2,0.6-0.5,1.3-0.7,2.1c-0.2,0.8-0.5,1.8-1,2.9l0.8,1.9c-0.1,0.4-0.3,1.4-0.7,3.1c-0.4,1.7-0.9,4-1.6,7c-0.5,2.1-1,4-1.5,5.6
			c-0.5,1.6-1,2.9-1.6,3.8c-0.3,0.7-0.6,1.6-0.9,2.8c-0.3,1.2-0.6,2.8-0.9,4.6c-0.5,0.8-1,1.7-1.6,2.8c-0.6,1.1-1.2,2.3-1.9,3.7
			c-0.5,0.5-1.1,1-1.7,1.6c-0.6,0.6-1.4,1.2-2.2,1.9c-0.8,1-1.6,1.7-2.5,2.1c-0.8,0.4-1.6,0.7-2.4,0.7c-0.6,0-1.1-0.1-1.4-0.3
			c-0.3-0.2-0.5-0.5-0.5-1c0-0.4,0-0.9,0.2-1.5c0.1-0.6,0.4-1.3,0.7-2.1c0.5-1.1,0.9-2.2,1.4-3.5c0.5-1.6,1-3.1,1.3-4.5
			c0.3-1.3,0.6-2.5,0.9-3.4c0-0.6,0.1-1.2,0.2-2c0.1-0.8,0.2-1.7,0.4-2.8c0-0.3,0.2-0.7,0.5-1.4c0.3-0.7,0.4-1.2,0.4-1.6
			c0-1,0.3-2.6,0.7-5c0.5-2.4,1.2-5.5,2.2-9.3c0-0.3,0.1-0.6,0.2-1c0.1-0.4,0.2-0.9,0.4-1.4c-0.3-0.4-0.5-0.9-0.7-1.2
			c0.1-0.4,0.2-1,0.3-1.6c0.1-0.7,0.2-1.4,0.2-2.3c0-1.2,0.3-2.9,0.8-5.3c0.5-2.3,0.8-4,0.8-5.2c0-0.7-0.1-1.3-0.3-1.7
			c-0.2-0.4-0.4-0.6-0.8-0.6l-0.8,0.2c-2.7,2-4.9,3.6-6.5,4.8c-1.6,1.1-2.8,1.8-3.5,2c-0.8,0.9-1.7,1.9-2.9,3
			c-1.2,1.1-2.6,2.2-4.3,3.4c-1.3,1-2.6,2-3.8,2.9c-1.3,1-2.6,2-3.9,2.9L1107.5,448.2z"/>
		<g>
			<path class="st2" d="M1160,438.3l0.3-0.3c0.1-0.4,0.4-0.7,0.8-1.1c0.4-0.4,1-0.8,1.8-1.2c1-0.5,1.9-0.9,2.4-1.3
				c0.6-0.3,1-0.6,1.1-0.7c0.3-0.3,0.5-0.5,0.6-0.6c0.3-0.2,0.8-0.5,1.3-0.8c0.5-0.3,1.1-0.8,1.7-1.3c0.2-0.1,0.5-0.3,0.7-0.6
				c0.3-0.3,0.5-0.6,0.8-0.9c0.4-0.2,0.9-0.5,1.4-0.8c0.5-0.4,1.1-0.8,1.8-1.3c0.8-0.7,1.7-1.4,2.7-2.2c1-0.8,2.1-1.6,3.3-2.5
				c0.4-0.2,0.8-0.3,1.2-0.4c0.4-0.1,0.7-0.1,1.1-0.1c1.4,0,2.5,0.3,3.2,0.8c0.7,0.5,1.1,1.3,1.1,2.3c0,0.3,0,0.7-0.2,1.2
				c-0.1,0.6-0.2,1.3-0.4,2.2c-0.4,2.5-0.8,4-1,4.6c-0.2,0.5-0.9,2.2-2,5.1c-0.3,0.5-0.5,1.1-0.8,1.7c-0.3,0.7-0.6,1.5-1,2.5
				c0,0.1,0.2,0.2,0.5,0.3c0.2,0,0.6-0.2,1.2-0.5c0.6-0.3,1.3-0.8,2.3-1.5c1.1-0.8,2-1.4,2.6-1.8c0.6-0.4,1-0.7,1.2-0.7
				c0.4,0.7,0.7,1.3,1,1.8c0.3,0.6,0.6,1.1,0.8,1.6c-0.4,0.2-0.8,0.4-1.1,0.7c-0.3,0.2-0.6,0.5-0.9,0.8c-0.7,0.4-1.4,0.7-2.3,1.2
				c-0.9,0.4-1.8,0.9-2.9,1.4c-0.5,0.4-1.1,0.8-1.9,1.4c-0.8,0.5-1.7,1.1-2.7,1.8l-0.9,0.1c-0.4,0.5-0.9,0.8-1.3,1.1
				c-0.4,0.3-0.7,0.4-1.1,0.5c-0.5,0.1-1,0.3-1.5,0.4c-0.5,0.1-1,0.3-1.6,0.4c-0.4-0.1-0.6-0.2-0.8-0.5c-0.2-0.3-0.2-0.6-0.2-1
				c-0.5-0.7-0.9-1.4-1.1-2.3c-0.3-0.9-0.4-1.8-0.4-2.9c0-0.2,0-0.4,0-0.6c0-0.2,0.1-0.4,0.1-0.6c-0.2-0.6-0.3-1-0.3-1.2
				c0-0.7,0.4-1.3,1.1-1.8c0.7-0.5,1.5-0.7,2.5-0.7c0.5,0,0.8,0.2,1,0.6c0.2,0.4,0.4,0.6,0.6,0.6c0.2,0,0.5-0.3,0.7-1
				c0.2-0.7,0.5-1.7,0.7-3c0.2-1.1,0.4-2.1,0.4-3c0-0.8,0.1-1.5,0.1-1.9c0-0.3-0.1-0.6-0.3-0.7c-0.2-0.2-0.5-0.2-0.9-0.2
				c-0.4,0-1.7,0.7-4,2.2c-2.2,1.5-5.4,3.7-9.4,6.6c-0.1,0.2-0.3,0.4-0.5,0.6c-0.2,0.2-0.5,0.6-0.8,0.9c-0.1-0.4-0.4-0.8-0.7-1.4
				C1160.9,439.8,1160.5,439.1,1160,438.3z"/>
			<path class="st2" d="M1191.5,438.3l0.2-0.3c0.2-0.2,0.4-0.4,0.7-0.7c0.3-0.3,0.6-0.6,1.1-1c2.2-1.6,4.4-3.6,6.6-5.8
				c2.1-2.2,4.2-4.8,6.3-7.8c0.3-0.3,0.5-0.6,0.9-1.1c0.3-0.4,0.7-1,1-1.7c0-0.2,0-0.3-0.1-0.3c-0.1-0.1-0.3-0.1-0.5-0.1
				c-0.2,0-0.5,0-0.9,0.1c-0.4,0.1-0.7,0.1-1,0.1h-5.9c-0.3,0-0.7,0-1.3,0c-0.6,0-1,0-1.2,0c-0.3-0.1-0.6-0.2-0.9-0.3
				c-0.3-0.1-0.5-0.2-0.8-0.3c-0.4-0.1-0.7-0.2-0.9-0.4c-0.2-0.2-0.3-0.4-0.3-0.6c0-1.6,0.2-2.8,0.6-3.6c0.4-0.8,1.1-1.3,2-1.3
				c0.9,0,1.7,0,2.5,0.1c0.8,0.1,1.5,0.1,2.1,0.2c0.5-0.1,0.9-0.2,1.3-0.2c0.8,0,1.6,0,2.2,0.1c0.6,0.1,1.1,0.1,1.4,0.2
				c0.4-0.1,0.8-0.1,1.2-0.2c0.4-0.1,0.8-0.1,1.3-0.2l1.5,0.4c1.1-0.1,2.3-1.3,3.5-3.6c1.2-2.3,2.6-3.5,4-3.5c0.8,0,1.3,0.2,1.7,0.6
				c0.4,0.4,0.6,0.9,0.6,1.6c0,0.6-0.2,1.3-0.6,2.2c-0.4,0.9-0.7,1.6-0.7,2.1c0.1,0.1,0.1,0.2,0.3,0.3c0.1,0.1,0.3,0.2,0.5,0.4
				c0.2,0.1,0.3,0.3,0.4,0.5c0.1,0.2,0.1,0.5,0.1,0.9c0,1.5-0.1,2.6-0.3,3.4c-0.2,0.8-0.5,1.2-0.8,1.2l-3.2,0.5
				c-0.1,0.3-0.1,0.6-0.2,0.9c-0.1,0.4-0.2,0.8-0.4,1.2c-0.5,1.2-1.1,2.8-1.8,4.7c-0.6,1.9-1.4,4.1-2.2,6.7c-0.5,2.1-0.9,3.7-1.1,5
				c-0.3,1.3-0.4,2.2-0.4,2.6c0,0.4,0.1,0.7,0.2,0.9c0.1,0.2,0.4,0.3,0.7,0.3c0.2,0,0.9-0.4,2-1.1c1.2-0.7,2.8-1.8,4.9-3.2l1.8,3.4
				c-0.3,0.3-0.8,0.6-1.3,1c-0.6,0.4-1.2,0.8-2,1.2c-0.3,0.3-0.7,0.6-1.2,0.9c-0.5,0.3-1,0.7-1.6,1.2c-0.6,0.5-1.1,1-1.7,1.5
				c-0.5,0.5-1.1,1-1.7,1.5c-0.8,0.7-1.5,1.1-2.2,1.4c-0.7,0.3-1.4,0.4-2,0.4c-1.4,0-2.4-0.3-3.1-1s-1-1.6-1-2.9
				c0-1.4,0.1-2.7,0.2-3.7c0.1-1.1,0.3-1.9,0.6-2.6c0.1-0.2,0.2-0.4,0.3-0.5c0-0.2,0-0.6,0.1-1c0.1-0.4,0.2-0.9,0.3-1.5
				c0.2-1,0.4-1.9,0.6-2.9c0.4-0.6,0.7-1.2,1.1-1.9c0-0.1-0.1-0.2-0.4-0.3l-0.5,0.2c-0.5,0.6-1.1,1.2-1.8,1.9
				c-0.8,0.7-1.7,1.3-2.7,2.1c-1.6,1.2-3.2,2.4-4.9,3.7c-0.1,0.1-0.3,0.3-0.5,0.6c-0.3,0.2-0.5,0.6-0.9,0.9
				c-0.2-0.3-0.4-0.7-0.6-1.1c-0.2-0.5-0.5-1-0.8-1.6c-0.1-0.2-0.1-0.3-0.2-0.4C1191.8,438.5,1191.6,438.4,1191.5,438.3z"/>
		</g>
		<path class="st2" d="M1341.7,467.6c-1.4,0.8-3,1.7-5,2.8c-2,1.1-4.3,2.2-7,3.5c-2.4,1.1-4.6,2-6.4,2.8c-1.9,0.8-3.4,1.4-4.6,1.8
			c-1.8,0.7-3.8,1.1-5.8,1.5c-2.1,0.3-4.1,0.4-6.3,0.4c-0.7,0-1.4-0.1-2.2-0.2c-0.8-0.2-1.7-0.3-2.7-0.6c-1.1-0.3-2.1-0.4-2.9-0.6
			c-0.8-0.2-1.5-0.3-2-0.3l-0.8-0.6l-1.9-0.2c-0.8,0-1.9-0.4-3-1c-1.2-0.6-2.5-1.5-3.9-2.6c-1.3-1.1-2.4-2-3.2-3
			c-0.8-1-1.4-1.8-1.8-2.6l-1.8-4.5c-0.6-1.5-1.1-2.8-1.4-3.7c-0.3-1-0.4-1.6-0.4-1.8l0.7-2.4c-0.4-0.8-0.6-1.5-0.8-2
			c-0.2-0.5-0.3-0.9-0.3-1.2c0-0.3,0.1-1.1,0.3-2.6c0.2-1.4,0.5-3.4,0.9-6c0.3-0.5,0.6-1.1,1-1.8c0.3-0.7,0.7-1.5,1-2.4l-0.2-1.1
			c0-0.3,0.1-0.6,0.2-1c0.2-0.4,0.4-0.8,0.6-1.2c1-1.7,2.1-3.5,3.1-5.2c1-1.8,2.1-3.5,3.1-5.1c0.9-1.3,2-2.6,3.5-3.9
			c1.4-1.3,3-2.7,4.9-4.2c0.4-0.3,0.9-0.8,1.5-1.4c0.6-0.6,1.3-1.2,2.1-1.8c0.8-0.3,1.7-0.9,2.8-1.6c1.1-0.7,2.4-1.6,3.9-2.8
			c0.4-0.1,1-0.3,1.6-0.6c0.6-0.3,1.4-0.6,2.3-0.9c0.2-0.1,0.5-0.3,0.8-0.5c0.3-0.3,0.7-0.5,1.2-0.8c0.5-0.4,2.3-0.9,5.4-1.6
			c3.1-0.7,5.1-1.1,6-1.1c2.1,0,3.8,0.1,5.2,0.3c1.4,0.2,2.6,0.6,3.4,1.1l2.1,0.3c1.8,0.3,3.1,1.4,4,3.2c0.8,1.8,1.3,4.5,1.3,7.9
			c0,1.6,0,2.9-0.1,3.9c0,1-0.1,1.6-0.2,2c-0.3,1-0.6,2.4-0.9,4c-0.3,1.6-0.8,3.4-1.3,5.6c0,0.6-0.3,1.5-0.9,2.8
			c-0.6,1.3-1.3,2.9-2.2,4.8c-0.9,2.1-1.7,3.6-2.4,4.7c-0.7,1.1-1.2,1.7-1.7,1.8c-1.8,0.4-3.7,0.7-5.8,1.2c-1,0-1.7-0.1-2.1-0.2
			c-0.4-0.1-0.6-0.3-0.6-0.6c0-0.3,0.1-0.6,0.2-1.2c0.2-0.5,0.2-0.9,0.2-1.1c-0.1-1.3-0.3-2.7-0.4-4.1c0-0.5,0.2-1.5,0.5-2.9
			c0.4-1.4,0.9-3.3,1.6-5.5c0.8-2.5,1.4-4.4,2-5.8c0.6-1.4,1.1-2.3,1.4-2.7c1.3-1,2.3-1.8,2.9-2.7c0.6-0.9,0.9-1.6,0.9-2.4
			c0-1-0.3-1.8-0.9-2.6c-0.6-0.8-1.5-1.3-2.7-1.7c-1.2-0.2-2.3-0.4-3.5-0.6c-1.2-0.2-2.4-0.4-3.5-0.7c-0.9,0.3-1.8,0.5-2.5,0.6
			c-0.7,0.1-1.4,0.3-1.9,0.4c-3,0.4-5.9,1.5-8.6,3.3c-2.7,1.8-5.4,4.3-7.9,7.4c-2.1,2.7-3.7,5.5-5,8.3c-1.3,2.7-2.1,5.5-2.6,8.3
			c-0.2,0.8-0.4,1.9-0.7,3.1c-0.3,1.3-0.7,2.7-1.1,4.4c0.4,1.1,0.8,2,1.1,2.9l-0.7,4.8c0,0.2,0.2,0.5,0.6,1.1c0.4,0.6,1,1.3,1.9,2.4
			c0.5,0.6,0.9,1.3,1.4,2.1c0.4,0.8,0.7,1.7,0.9,2.7c0.1,0.2,0.3,0.5,0.5,0.8c0.3,0.3,0.5,0.5,0.8,0.7c0.7,0.4,1.3,0.9,1.9,1.2
			c1.9,1.6,4,2.8,6.2,3.7c2.2,0.8,4.5,1.2,6.9,1.2c0.2,0,1.1-0.1,2.5-0.3c1.4-0.2,3.4-0.4,6-0.8c0.4-0.3,1-0.5,1.8-0.7
			c0.7-0.3,1.6-0.5,2.6-0.8c0.9-0.7,1.8-1.2,2.7-1.5c0.9-0.3,1.7-0.4,2.4-0.4c0.2-0.3,0.5-0.6,0.8-0.9c0.3-0.4,0.8-0.8,1.3-1.2
			c1.3-0.4,2.5-1,3.7-1.7c1.1-0.7,2.2-1.5,3.2-2.4C1340.8,465.8,1341.7,467.4,1341.7,467.6z"/>
		<path class="st2" d="M1338,462.8c1-0.7,1.8-1.2,2.3-1.6c0.5-0.4,1-0.7,1.3-1c0.7-0.5,1.3-1,1.7-1.5c0.5-0.5,0.7-0.9,0.8-1.3
			c0.4-1.2,0.9-2.7,1.4-4.5c0.5-1.8,1.2-3.9,2.1-6.2c0.4-0.7,0.8-1.6,1.3-2.7c0.5-1.1,1-2.3,1.5-3.6c0.5-1.7,1.2-3.3,2-4.8
			c0.8-1.4,1.7-2.7,2.7-3.9c0.3-0.3,0.6-0.7,0.9-1.2c0.3-0.5,0.6-1,0.9-1.7c0.3-0.6,0.8-1.2,1.3-2c0.6-0.8,1.2-1.6,1.9-2.7
			c1.8-2.1,3.4-3.9,4.8-5.4c1.4-1.5,2.5-2.7,3.4-3.6c1.6-1.5,3.2-2.9,4.8-4.2c1.6-1.3,3.3-2.5,4.9-3.7c1.5-1,2.8-1.8,3.9-2.2
			c1.1-0.5,2-0.7,2.7-0.7c0.6,0.4,1.1,0.8,1.3,1.1c0.3,0,0.6,0,0.9-0.1c1.2,0,2,0.4,2.5,1.1c0.5,0.7,0.8,1.8,0.8,3.3
			c0,0.3-0.1,0.7-0.2,1.2c-0.1,0.5-0.3,1.1-0.5,1.9c-0.3,0.3-0.5,0.6-0.7,1c-0.1,0.4-0.3,0.8-0.3,1.1c0,0.5-0.1,0.9-0.2,1.3
			c-0.1,0.3-0.2,0.7-0.3,0.9c-0.6,0.8-1.2,1.9-1.9,3.1c-0.7,1.2-1.4,2.6-2.1,4.2c-0.5,0.6-1,1.4-1.7,2.4c-0.7,1-1.5,2.1-2.4,3.3
			c-0.5,0.7-1,1.5-1.7,2.5c-0.7,1-1.6,2.2-2.6,3.4c-0.3,0.5-0.7,1-1.4,1.6c-0.6,0.6-1.4,1.3-2.3,2c-0.3,0.6-1,1.5-2.2,2.9
			c-1.2,1.4-2.9,3.1-5.1,5.3c-1.1,1.1-2.4,2.4-4.2,4c-1.7,1.6-3.7,3.5-5.9,5.7c-0.8,2.6-1.5,5-1.9,7c-0.4,2-0.6,3.8-0.6,5.3
			c0,0.6,0.1,1,0.2,1.3c0.1,0.3,0.3,0.4,0.6,0.4c0.2-0.3,0.5-0.5,1-0.8c0.4-0.3,0.9-0.7,1.3-1.1c0.8-0.6,1.9-1.7,3-3.3
			c1.1-1.6,2.4-3.7,3.9-6.3c1.3-2.3,2.4-4.1,3.5-5.3c1-1.3,1.9-2,2.6-2.2l2.3-0.8c0.5-0.1,0.8-0.3,1.2-0.4c0.3-0.1,0.6-0.2,0.9-0.2
			c0.6,0,1.1,0.3,1.6,0.8c0.5,0.6,0.9,1.3,1.2,2.3c0.6,1.8,1.1,3.2,1.4,4.1c0.4,1,0.6,1.5,0.6,1.7c0.6,1.1,1.3,1.8,2.1,2.3
			c0.8,0.5,1.8,0.7,3,0.7c1.4-0.2,3-0.4,4.9-0.7c0.4,0.7,0.8,1.5,1.3,2.3c0.5,0.8,1,1.7,1.5,2.6c-1.1,0.6-2.2,1.1-3.3,1.6
			c-1.1,0.5-2.2,1.1-3.2,1.6c-0.7,0.3-1.7,0.6-3.1,0.7c-1.3,0.2-2.9,0.2-4.7,0.2c-2.7,0-4.8-1-6.3-3c-1.5-2-2.4-3-2.7-3h-0.4
			c-0.7,0.7-1.4,1.4-2.2,2.2c-0.8,0.7-1.6,1.5-2.3,2.3c-0.5,0.8-1.2,1.7-2.1,2.8c-0.9,1.1-2,2.2-3.2,3.5c-1.5,1.4-2.8,2.5-3.9,3.2
			c-1.1,0.7-2.1,1.1-2.9,1.1c-1.7,0-3-0.1-4-0.4c-1-0.3-1.5-0.8-1.7-1.3c-0.5-2-0.9-3.7-1.2-5.2c-0.3-1.5-0.4-2.7-0.4-3.7
			c0-0.3,0-0.6,0.1-0.8c0-0.3,0.1-0.5,0.1-0.7c0.1-0.5,0.3-1,0.5-1.5c0-0.2,0-0.3-0.2-0.4c-0.1-0.1-0.3-0.1-0.6-0.1
			c-0.1,0.1-0.3,0.3-0.5,0.5c-0.2,0.2-0.5,0.4-0.9,0.6c-0.2-0.4-0.5-1.1-1-1.9C1339.3,464.9,1338.7,463.9,1338,462.8L1338,462.8z
			 M1381.5,414.2c-0.5,0-1.5,0.7-3,2.1c-1.5,1.4-3.3,3.4-5.6,6.1c-1.3,1.5-2.6,3-3.8,4.5c-1.3,1.5-2.5,2.9-3.7,4.4
			c-0.5,0.4-0.9,0.8-1.2,1.3c-0.3,0.4-0.4,0.9-0.4,1.3c-0.9,2-1.8,3.8-2.6,5.5c-0.8,1.8-1.5,3.3-2,4.3c-0.5,1-0.8,1.6-0.9,1.8
			l0.3,0.3c0.9-0.6,1.6-1.3,2.3-2c0.9-0.8,2-1.8,3.2-3.1c1.3-1.3,2.7-2.8,4.3-4.5c1.6-1.6,3.2-3.7,4.9-6.1c1.7-2.5,3.5-5.3,5.5-8.5
			c1.1-1.8,1.9-3.2,2.5-4.2c0.6-1,0.8-1.8,0.8-2.2c0-0.2-0.1-0.4-0.2-0.6C1382.1,414.3,1381.8,414.2,1381.5,414.2z"/>
		<path class="st2" d="M1386.2,462.8c0.3-0.3,0.6-0.6,1-1c0.3-0.4,0.7-0.8,1.2-1.3l5.2-2.8c0.6-0.6,1.6-1.3,2.9-2.3
			c1.3-0.9,2.9-2,4.8-3.4c0.2-0.4,0.6-0.8,1.1-1.3c0.5-0.5,1.1-1,1.8-1.5c0.6-0.4,1.3-0.9,1.9-1.3c0.6-0.4,1.2-0.8,1.7-1.2
			c0.7-0.5,1.3-1.1,1.9-1.6c0.6-0.5,1.2-1,1.9-1.5c0.7-0.5,1.4-0.9,2.2-1.2c0.8-0.3,1.6-0.4,2.5-0.4c1,0,1.7,0.1,2.2,0.3
			c0.5,0.2,0.8,0.5,0.8,0.8c-0.4,0.8-0.9,1.6-1.4,2.4l0.4,0.5c2-0.6,3.5-1,4.6-1.3c1.1-0.3,1.8-0.4,2.2-0.4c3.2,0,5.7,0.8,7.3,2.3
			c1.6,1.6,2.4,3.9,2.4,7.1c0,0.6-0.1,1.3-0.3,2.1c-0.2,0.8-0.5,1.7-0.9,2.6c-0.4,1.1-0.9,1.9-1.4,2.6c-0.5,0.7-1,1.2-1.4,1.5
			c0.2,0.4,0.4,0.7,0.6,0.9c0.2,0.2,0.5,0.3,0.9,0.3c0.3,0,0.7-0.1,1.1-0.3c0.4-0.2,0.8-0.4,1.4-0.8c0.5,0.8,0.9,1.6,1.3,2.4
			c0.4,0.8,0.9,1.6,1.3,2.4c-0.8,0.6-1.6,1.1-2.3,1.7c-0.8,0.5-1.6,1-2.4,1.5c-1,0.7-2,1.2-2.9,1.5c-0.9,0.3-1.8,0.4-2.7,0.4
			c-1,0-1.9-0.2-2.6-0.6c-0.7-0.4-1.2-0.9-1.6-1.7c-1.1,1.2-2.5,2.2-4.1,3.2c-1.6,1-3.3,1.8-5.2,2.4c-1.1,0.4-2.2,0.8-3.1,1
			c-0.9,0.2-1.7,0.3-2.5,0.3c-0.2,0-0.7,0.1-1.3,0.2c-0.7,0.1-1.2,0.2-1.6,0.2c-2.5,0-4.9-0.8-6.9-2.5c-2.1-1.7-3.1-3.6-3.1-5.7
			c0-0.8,0.3-2,0.7-3.4c0.5-1.4,0.8-2.2,0.8-2.4c0-0.3-0.1-0.4-0.3-0.6c-0.2-0.1-0.5-0.2-0.8-0.2c-0.2,0-0.8,0.3-1.6,0.8
			c-0.8,0.5-2,1.3-3.6,2.3c-0.1,0.1-0.3,0.4-0.5,0.6c-0.2,0.3-0.5,0.6-0.9,1c-0.4-0.8-0.8-1.6-1.2-2.4
			C1387.2,464.4,1386.7,463.5,1386.2,462.8L1386.2,462.8z M1418.4,453.2c-0.2,0-0.5,0.2-1,0.6c-0.4,0.3-0.8,0.7-1.2,1.2
			c-0.6,0.8-1.4,1.7-2.2,2.6c-0.5,0.4-1,0.8-1.6,1c-0.5,0.2-1.2,0.4-1.9,0.5c-0.5,0-0.9,0.4-1.4,1c-0.5,0.6-1,1.6-1.5,2.8
			c-0.5,1.1-0.8,2-1.1,2.8c-0.2,0.8-0.3,1.4-0.3,2c0,1,0.3,1.7,0.9,2.2c0.6,0.5,1.6,0.7,2.9,0.7c2.1,0,3.9-0.4,5.7-1.3
			c1.7-0.9,3.3-2.2,4.9-4c0.7-0.7,1.4-1.3,2-1.9c0.4-0.2,0.7-0.5,0.9-1c0.2-0.5,0.5-1.1,0.7-1.8l1.2-3c-0.4-1-0.8-1.9-1.1-2.5
			c-0.4-0.6-0.7-1-1.1-1.1c-0.2-0.1-0.7-0.2-1.5-0.3C1420.9,453.5,1419.9,453.4,1418.4,453.2z"/>
		<path class="st2" d="M1433.6,462.8l0.4-0.4l0.2-0.5c1.2-1.3,3.3-3,6.4-5.1c3-2.1,5.1-3.8,6.3-5.1c0.5-0.6,1-1,1.6-1.2
			c0.6-0.2,1.1-0.4,1.7-0.4c1.6,0,2.9,0.3,4,0.9c1.1,0.6,1.8,1.5,2.1,2.8c0.3,1.1,0.6,2.2,0.9,3.3c0.3,1.1,0.5,2.2,0.7,3.3
			c0.3,0.7,0.7,1.8,1.1,3.2c0.5,1.4,0.8,2.2,1,2.4c0.2,0.3,0.5,0.6,1,0.8c0.5,0.2,1,0.2,1.7,0.2c0.8,0,1.6-0.1,2.5-0.3
			c0.8-0.2,1.7-0.6,2.6-1.2c0.7-0.4,1.4-0.9,2.1-1.4c0.7-0.5,1.4-1,2.2-1.4l2.7,4.8c-0.7,0.6-1.7,1.2-2.8,1.9
			c-1.2,0.7-2.6,1.6-4.3,2.5c-1.8,1-3.4,1.8-4.7,2.3c-1.3,0.5-2.3,0.8-3,0.8c-4.1,0-6.7-0.4-7.9-1.1c-1.2-0.7-2.5-2.8-4-6.1
			c-0.2-0.3-0.4-0.6-0.8-1c-0.3-0.4-0.8-0.8-1.2-1.4c-0.5-0.8-1-1.4-1.4-1.8c-0.4-0.4-0.7-0.6-1-0.6c-0.7,0-1.7,0.4-2.9,1.1
			c-1.2,0.8-2.7,1.9-4.4,3.4c-0.2-0.4-0.5-1-0.8-1.6c-0.3-0.6-0.7-1.4-1.1-2.2c-0.1-0.2-0.2-0.4-0.3-0.6
			C1433.9,463,1433.8,462.9,1433.6,462.8L1433.6,462.8z M1461.6,421.3c1.1,0,1.9,0.2,2.4,0.5c0.5,0.4,0.8,0.9,0.8,1.5
			c-0.3,1-0.5,1.8-0.7,2.5c-0.5,1.3-0.8,2.3-1.2,3.1c-0.3,0.8-0.6,1.4-0.8,1.7c-0.4,0.8-1,1.4-1.6,2c-0.7,0.6-1.5,1.1-2.5,1.6
			c-1,0.6-1.9,1-2.6,1.2c-0.7,0.2-1.2,0.3-1.4,0.3c-0.8-0.1-1.5-0.1-2.2-0.2c-0.7,0-1.4-0.1-2-0.1c-0.6-0.3-1.1-0.7-1.4-1.4
			c-0.3-0.7-0.5-1.7-0.5-2.8c0-1.1,0.8-2.4,2.4-4c1.6-1.6,3.1-2.5,4.3-2.6c0.8-0.7,1.6-1.6,2.7-2.5c0.4-0.3,1-0.4,1.7-0.6
			C1459.8,421.4,1460.6,421.3,1461.6,421.3z"/>
		<path class="st2" d="M1470.9,462.8l0.6-0.4c0-0.4,0.3-0.8,0.9-1.4c0.6-0.5,1.4-1.1,2.5-1.8c0.7-0.4,1.4-0.8,2.1-1.1
			c0.7-0.3,1.4-0.7,2.1-1.1c2.8-1.9,5.5-3.7,8.1-5.5c1.5-1,3-2,4.6-2.7c1.5-0.8,3-1.4,4.3-1.8c0.9-1,2.7-1.9,5.3-2.9
			c2.6-1,4.6-1.5,6.2-1.5c0.6,0,1.1,0.1,1.5,0.4c0.4,0.3,0.6,0.6,0.7,1.1v2.9c0,1-0.4,1.9-1.1,2.7c-0.8,0.8-1.9,1.5-3.3,2.2
			c-1,0.3-2,0.7-3,1.2c-1,0.4-2,0.8-2.9,1.1c-0.4,0.4-1.3,1-2.9,2c-1.5,1-3.6,2.3-6.2,3.9c-1.2,0.7-2.2,1.4-3,2
			c-0.8,0.6-1.4,1.1-1.7,1.4c-0.4,0.7-0.8,1.4-1,2.2c-0.3,0.8-0.4,1.7-0.4,2.8c0,0.8,0.2,1.5,0.5,2.1c0.3,0.6,0.8,1,1.4,1.4
			c0.5,0.3,1.1,0.5,1.9,0.7c0.8,0.3,1.7,0.5,2.9,0.7c0.7-0.2,1.5-0.4,2.6-0.6c1.1-0.2,2.3-0.4,3.6-0.8c1.5-0.7,3-1.5,4.6-2.2
			c1.6-0.8,3.1-1.6,4.7-2.4c0.2-0.1,0.5-0.2,0.8-0.3c0.3-0.1,0.7-0.3,1-0.6c0.4-0.5,1.1-1,1.8-1.6c0.8-0.6,1.7-1.3,2.8-2.1
			c1.8,3.1,2.7,4.7,2.7,4.8c-1.6,1.1-3.3,2.1-5,3.2c-1.7,1.1-3.6,2-5.8,2.7c-0.7,0.5-1.3,0.9-1.8,1.3c-2.2,1.8-4.8,3.1-7.8,4
			c-3,0.9-6.4,1.3-10.1,1.3c-0.8,0-1.6-0.1-2.3-0.2c-0.7-0.1-1.2-0.3-1.7-0.4c-1.3-0.7-2.5-1.3-3.4-1.9c-1-0.6-1.8-1.1-2.5-1.6
			c-0.7-0.5-1.2-1-1.5-1.5c-0.4-0.5-0.7-1.1-0.8-1.8c-0.2-0.7-0.2-1.6-0.2-2.6c0-0.3,0.1-0.7,0.3-1.4c0.2-0.6,0.3-1.1,0.3-1.3
			c-0.3-0.8-0.7-1.6-1.2-2.4C1472.1,464.4,1471.5,463.6,1470.9,462.8z"/>
		<path class="st2" d="M1512.2,462.8c0.5-0.7,1.2-1.5,2.1-2.2c0.8-0.8,1.9-1.5,3.2-2.3c0.1-0.7,0.3-1.4,0.4-2.1
			c0.1-0.7,0.2-1.4,0.3-2.1c0.1-0.5,0.3-1.1,0.6-1.7c0.3-0.7,0.6-1.4,1-2.2c0.4-0.8,1-1.7,1.6-2.9c0.7-1.2,1.6-2.5,2.7-3.9
			c0.9-0.8,1.9-1.7,2.9-2.7c1-1,2.1-1.9,3.1-2.9c0.5-0.3,1-0.6,1.6-0.9c0.6-0.3,1.2-0.6,1.7-1c0.5-0.1,1.1-0.3,1.8-0.4
			c0.7-0.1,1.4-0.2,2.2-0.2c1.1,0,2,0.1,2.7,0.3c0.7,0.2,1.3,0.5,1.7,0.9c0.3,0.3,0.6,0.7,0.9,1.3c0.3,0.6,0.6,1.2,0.8,2
			c0.1,0.7,0.3,1.5,0.5,2.3c0-0.2-0.1-0.1-0.2,0.3c-0.2,0.4-0.4,1-0.7,1.8l-0.6,1.7c-0.6,1.7-2,3.6-4.2,5.8
			c-2.2,2.2-5.1,4.7-8.9,7.6c-0.3,0.3-0.6,0.6-0.8,0.9c-0.2,0.4-0.3,0.8-0.3,1.2c0,0.7,0.2,1.4,0.5,1.9c0.3,0.6,0.8,1,1.4,1.3
			c0.4,0.2,0.9,0.4,1.7,0.6c0.8,0.2,1.7,0.4,2.8,0.6c1.8-0.1,3.4-0.3,4.8-0.7c1.4-0.4,2.7-0.8,3.8-1.3c0.2-0.1,0.6-0.3,1.1-0.5
			c0.5-0.2,1-0.5,1.5-0.8c0.6,1,1.1,1.9,1.5,2.7c0.5,0.8,0.8,1.5,1.1,2.1c-2.5,2-4.9,3.5-7,4.5c-2.1,1-4,1.5-5.7,1.5
			c-0.7,0.4-1.5,0.6-2.4,0.8c-0.9,0.2-2,0.2-3.3,0.2c-1.6,0-3.1-0.2-4.4-0.6c-1.3-0.4-2.3-1-3.2-1.7c-0.4-0.4-0.9-0.9-1.3-1.6
			c-0.5-0.7-0.9-1.5-1.4-2.5c-0.4-0.8-0.8-1.3-1.1-1.7c-0.3-0.4-0.8-0.6-1.2-0.6c-0.3,0-0.8,0.1-1.2,0.4c-0.5,0.3-0.9,0.7-1.5,1.2
			c-0.2-0.5-0.5-1.2-1-2C1513.6,464.9,1513,463.9,1512.2,462.8L1512.2,462.8z M1533.7,445.8c-1,0-2.3,1-4,3c-1.7,2-2.5,3.5-2.5,4.5
			c0,0.2,0,0.4,0.2,0.4c0.1,0.1,0.4,0.1,0.7,0.1c0.5,0,0.9-0.2,1.2-0.6c0.3-0.4,0.6-0.8,0.9-1.1c0.5-0.4,1-0.7,1.4-1.1
			c0.5-0.4,0.9-0.8,1.4-1.2c0.5-0.5,1-1,1.2-1.5c0.3-0.5,0.4-1,0.4-1.5c0-0.3-0.1-0.6-0.2-0.8C1534.2,445.8,1534,445.8,1533.7,445.8
			z"/>
	</g>
	<path class="st1" d="M581.7,305.7v28.1h-16.6v-49.3c0-4.7,0.5-8.7,1.4-12c0.9-3.3,2.5-6,4.7-8c2.2-2,5.1-3.5,8.8-4.4
		c3.7-0.9,8.2-1.4,13.7-1.4h50.4v14.4h-50c-4.6,0-7.8,1-9.7,2.9c-1.8,1.9-2.7,5.1-2.7,9.5v5.9h63.1v14.2H581.7L581.7,305.7z
		 M790.8,333.8c-5.3,0-10.1-0.5-13.7-1.4c-3.6-0.9-6.6-2.4-8.8-4.4c-2.2-2-3.7-4.7-4.7-7.9c-0.9-3.3-1.4-7.3-1.4-12v-49.3H779v48.7
		c0,2.3,0.2,4.3,0.7,5.8c0.5,1.5,1.3,2.8,2.3,3.7c1,0.9,2.4,1.7,4.1,2c1.7,0.3,3.8,0.5,6.3,0.5h25.1c2.5,0,4.6-0.2,6.3-0.5
		c1.7-0.4,3.1-1.1,4.1-2c1-0.9,1.8-2.2,2.2-3.7c0.4-1.5,0.7-3.5,0.7-5.8v-48.6h16.6v49.3c0,4.7-0.5,8.8-1.4,12
		c-0.9,3.2-2.5,5.9-4.7,7.9c-2.2,2-5.2,3.5-8.8,4.4c-3.6,0.9-8.4,1.4-13.8,1.4H790.8L790.8,333.8z M996.8,333.8v-60.6h-31.4l0-14
		l79.6-0.4v14.4h-31.4v60.6H996.8L996.8,333.8z M1190.8,338.2c-5.2,0-10.1-0.5-13.7-1.4c-3.6-0.8-6.6-2.4-8.8-4.4
		c-2.2-2-3.7-4.7-4.7-7.9c-0.9-3.3-1.4-7.3-1.4-12v-49.3h16.8V312c0,2.2,0.2,4.3,0.7,5.8c0.5,1.5,1.3,2.8,2.3,3.7
		c0.9,0.9,2.5,1.7,4.1,2c1.6,0.3,3.8,0.5,6.3,0.5h25.1c2.5,0,4.6-0.2,6.3-0.5c1.7-0.4,3.2-1.1,4.1-2c1-0.9,1.8-2.3,2.2-3.7
		c0.4-1.5,0.7-3.5,0.7-5.8v-48.6h16.6v49.3c0,4.6-0.5,8.9-1.4,12c-0.8,3.2-2.5,5.9-4.7,7.9c-2.2,2-5.2,3.6-8.8,4.4
		c-3.6,0.8-8.4,1.4-13.8,1.4H1190.8L1190.8,338.2z M1426,333.8l-43.8-27.3v27.3h-16.6v-75h58.6c5.3,0,9.8,0.3,13.5,1
		c3.7,0.7,6.9,1.9,9.2,3.5c2.3,1.6,4.1,4,5.2,6.9c1.1,2.9,1.6,6.8,1.6,11.1v5.2c0,4.2-0.7,8-1.8,10.7c-1.1,2.7-3.1,5.1-5.4,6.7
		c-2.4,1.6-5.5,2.8-9.3,3.5c-3.7,0.7-8.3,1-13.3,1h-13.2l43.9,25.4H1426L1426,333.8z M1437.1,282.3c0-2-0.3-3.7-0.7-4.8
		c-0.4-1.2-1.2-2.2-2.2-2.9c-1-0.7-2.5-1.2-4.3-1.3c-1.8-0.1-4.3-0.3-6.8-0.3h-40.9v22.9h40.9c2.7,0,5-0.2,6.7-0.3
		c1.7-0.1,3.2-0.7,4.3-1.3c1.1-0.7,1.9-1.7,2.2-2.9c0.4-1.2,0.7-2.9,0.7-4.9V282.3L1437.1,282.3z M1599.4,333.8
		c-5,0-10.2-0.6-13.7-1.4c-3.5-0.8-6.6-2.4-8.8-4.4c-2.2-2-3.7-4.7-4.7-7.9c-0.9-3.3-1.4-7.3-1.4-12v-23.5c0-4.7,0.5-8.7,1.4-12
		c0.9-3.3,2.6-6.1,4.7-8c2.1-1.9,5.3-3.6,8.8-4.4c3.5-0.8,8.2-1.4,13.7-1.4h51.3V273h-51.3c-2.2,0-4.4,0.2-5.9,0.6
		c-1.5,0.4-2.8,1-3.7,1.9c-0.9,0.9-1.7,2.2-1.9,3.5c-0.2,1.3-0.5,3.6-0.5,5.5v5.1h63.7v13.3h-63.7v5.3c0,2,0.3,4.3,0.5,5.6
		c0.2,1.3,0.9,2.6,1.8,3.5c0.9,0.9,2.2,1.6,3.7,1.8c1.4,0.2,3.6,0.5,6,0.5h52.2v14.2H1599.4L1599.4,333.8z M1767.9,333.8v-14.2h56.8
		c3,0,5.2-0.4,6.5-1.3c1.3-0.8,2-2.5,2-5.1v-4.1c0-2.3-0.7-4-2-5c-1.3-1-3.5-1.5-6.4-1.5h-35.7c-4.1,0-7.6-0.4-10.4-1.2
		c-2.7-0.8-4.9-2-6.5-3.5c-1.6-1.6-2.7-3.6-3.3-5.9c-0.6-2.4-0.9-5.2-0.9-8.4V280c0-3.8,0.4-7.1,1.2-9.8c0.8-2.7,2.1-4.9,3.7-6.5
		c1.7-1.6,3.9-2.9,6.6-3.6c2.7-0.8,5.9-1.2,9.7-1.2h57V273h-55.5c-2.5,0-4.4,0.5-5.7,1.5c-1.2,1-1.8,3-1.8,6v2.4c0,2.3,0.6,4,1.6,5
		c1.1,1,3,1.5,5.7,1.5h35c4.2,0,7.7,0.3,10.6,1c2.9,0.7,5.3,1.8,7.1,3.4c1.8,1.5,3.2,3.5,3.9,5.9c0.8,2.4,1.2,5.3,1.2,8.7v5.9
		c0,3.5-0.4,6.5-1.2,9c-0.8,2.5-2.1,4.5-3.9,6c-1.8,1.5-4.2,2.7-7.1,3.4c-2.9,0.7-6.4,1.1-10.6,1.1H1767.9z"/>
	<path class="st0" d="M143.6,202.4c0,0-0.2-0.2-0.2-0.3c-7.2-9.8-18-19.7-5.9-31.9c34.9-35.2,235.6-48.3,338.2-56
		c13.5-29.7,27-59.5,40.6-89.2C436.6,32.8,60.2,55.1,71.8,163.5c1.4,12.9,7,23.8,15.6,33.2c8.5,9.1,16.2,13.5,26.5,20.2
		c0.2,0.1,0.6,0.4,0.8,0.5C123.6,211.8,133.9,206.6,143.6,202.4L143.6,202.4z"/>
	<path class="st0" d="M145.8,520.8c1.6-0.7,3-0.8,4.6-1.1C445,458.9,410.2,371.7,271,367.2l40.9-89
		c196.9,41.6,253.8,218.8-158,256.5c-1.4,0.1-1.8,0.1-3.2,0.3C141.1,535.9,137.6,524.1,145.8,520.8z"/>
	<path class="st1" d="M198.7,347.3c-2.1-1.4-4.9-2.4-6.9-3.3c-188.1-92.1,113-97.4,240.4-101.4c13-29.1,25.9-58.1,38.9-87.2
		c-46.9,2.7-211.4,5.6-311.6,40.7c-17.8,6.2-44,18.5-58,30.9c-14.4,12.7-22.5,27.7-21.6,45.6c2.4,47,54.3,71.6,106.1,85.8
		c1.9,0.5,3.1,0.9,5.5,1.4C202.6,362.1,205.7,351.9,198.7,347.3z"/>
</g>
</svg>
